<svg width="180" height="201" viewBox="0 0 180 201" fill="none" xmlns="http://www.w3.org/2000/svg">
<path d="M119.042 45.6961C103.772 20.4588 70.9334 12.3793 45.6962 27.65C20.4589 42.9207 12.3793 75.7589 27.65 100.996L60.3574 155.05C75.6281 180.288 108.466 188.367 133.704 173.097C158.941 157.826 167.02 124.988 151.75 99.7503L119.042 45.6961Z" fill="#00C49A"/>
<path d="M57.7642 117.815C55.3435 119.343 52.9381 120.798 50.4552 122.419L48.7701 116.867C51.273 115.475 53.6755 114.021 56.1505 112.583C55.247 109.784 54.3495 107.041 53.4111 104.205L58.219 101.295C59.044 104.143 59.8704 106.988 60.6981 109.831C63.1177 108.308 65.5664 106.826 68.0043 105.229L69.6923 110.779C67.2344 112.148 64.7857 113.63 62.309 115.065C63.2125 117.864 64.1099 120.607 65.0512 123.442L60.2405 126.353C59.3888 123.463 58.5897 120.661 57.7642 117.815Z" fill="#F85E00"/>
<path d="M76.8053 85.6295C77.1601 86.9077 77.678 89.3432 81.253 100.976C85.2769 113.944 85.5274 114.456 86.7451 114.197L88.1535 113.764L88.6133 115.216L75.2826 123.282L74.7794 121.856L76.2182 120.559C77.2477 119.695 77.2404 118.985 73.5922 107.14C70.4616 97.0314 70.401 97.4274 68.4032 97.9767L67.5723 98.1832L67.2004 96.9746C70.8816 94.0999 73.8139 90.3786 75.7478 86.1272L76.8053 85.6295Z" fill="#F85E00"/>
<path d="M91.9099 82.5249L98.9245 78.8176C100.073 84.2724 101.692 90.1015 103.597 93.2499C104.496 94.7359 105.503 94.7229 106.463 94.1421C107.076 93.7712 107.792 92.9827 107.221 90.4605L108.266 90.3065C110.735 99.3221 110.694 102.511 108.158 104.045C106.759 104.892 104.237 104.091 102.86 101.816C101.326 99.2807 100.61 92.9678 100.157 89.0595L99.6589 89.1239C100 101.339 100.02 108.969 97.0478 110.768C93.4195 112.963 90.4455 111.899 89.2542 109.93C86.7159 105.735 90.6814 98.0791 89.5273 95.9693C89.1039 95.2697 88.1401 95.2564 86.6079 96.1836C84.905 97.214 84.0068 98.2946 84.4522 100.415L83.4108 100.567C81.5404 93.0372 81.1928 88.7095 83.6357 87.2313C85.168 86.3041 87.8253 87.1449 89.2808 89.5503C90.9462 92.3026 91.5847 98.4883 92.5626 100.104C93.3043 101.33 94.4867 100.915 95.8397 100.096C101.559 96.6314 98.4215 91.2432 91.9099 82.5249Z" fill="#F85E00"/>
<path d="M118.915 88.6968C119.877 92.4595 121.758 97.2457 124.907 103.24L115.334 109.032C112.701 98.2629 114.629 84.5762 113.032 81.9367C112.61 81.2399 111.349 81.2249 109.374 82.4197C107.539 83.5306 106.571 84.5941 107.06 86.6878L105.981 86.8628C104.11 79.3332 103.789 75.0488 106.232 73.5706C107.938 72.5385 110.69 74.0327 114.264 79.9391C114.951 81.0753 115.785 83.1382 116.786 85.5818L117.231 85.4306C113.963 73.6125 114.625 68.4923 117.414 66.8042C119.6 65.4817 122.698 68.6233 125.052 72.5147C128.306 77.892 131.118 90.0456 126.703 92.7169C124.57 93.9957 121.688 91.7979 118.915 88.6968ZM124.185 75.2984C123.71 74.5121 122.701 74.5222 121.131 75.4721C118.945 76.7946 117.089 79.9477 118.426 86.6669C119.119 86.5139 119.78 86.2361 120.374 85.8471C125.607 82.6808 125.296 77.1343 124.185 75.2984Z" fill="#F85E00"/>
<path d="M111.18 50.9394L35.9429 96.4641L35.8466 96.3051C34.6651 94.3553 33.6374 92.3163 32.7727 90.2067C31.8107 87.8707 31.0548 85.4551 30.5135 82.9874C28.2639 72.8078 29.7047 62.16 34.579 52.9444C39.4532 43.7287 47.4436 36.545 57.1241 32.6754C66.8046 28.8057 77.5452 28.5019 87.4289 31.8182C97.3126 35.1345 105.696 41.855 111.084 50.7804L111.18 50.9394ZM36.0569 95.9607L110.646 50.8278C109.502 48.9503 108.217 47.1625 106.802 45.4798C105.194 43.5603 103.421 41.7853 101.503 40.175C94.0417 33.9018 84.693 30.3105 74.9507 29.9751C65.2085 29.6397 55.6349 32.5794 47.7598 38.3246C39.8847 44.0698 34.1626 52.2889 31.5078 61.6684C28.8531 71.048 29.4188 81.0467 33.1147 90.067C33.9474 92.102 34.9309 94.0721 36.0569 95.9607Z" fill="#F85E00"/>
<path d="M106.854 45.1998L32.8599 89.9723L33.0523 90.2903L107.046 45.5178L106.854 45.1998Z" fill="#F85E00"/>
<path d="M106.967 45.3483L32.933 90.1453C31.9752 87.814 31.2247 85.4029 30.6901 82.9398L101.64 40.0093C103.568 41.6305 105.35 43.4169 106.967 45.3483Z" fill="#F85E00"/>
<path d="M128.698 164.818C120.843 169.581 111.692 171.762 102.532 171.053C93.373 170.344 84.6663 166.782 77.6372 160.867C75.702 159.243 73.9129 157.452 72.2903 155.516C70.8227 153.771 69.4934 151.915 68.3144 149.963L68.2181 149.804L143.455 104.28L143.551 104.439C144.732 106.389 145.761 108.427 146.628 110.535C150.612 120.235 150.994 131.039 147.707 140.996C144.42 150.953 137.679 159.406 128.703 164.826L128.698 164.818ZM68.717 149.937C69.8635 151.813 71.1485 153.6 72.5612 155.285C78.8412 162.741 87.4381 167.878 96.9794 169.875C106.521 171.873 116.456 170.616 125.2 166.306C133.943 161.996 140.991 154.88 145.217 146.096C149.443 137.311 150.603 127.364 148.514 117.842C147.498 113.241 145.742 108.834 143.316 104.794L68.717 149.937Z" fill="#F85E00"/>
<path d="M146.342 110.46L72.3477 155.232L72.5401 155.55L146.534 110.778L146.342 110.46Z" fill="#F85E00"/>
<path d="M146.455 110.608L72.4208 155.405C74.0363 157.334 75.8183 159.117 77.7462 160.734L148.707 117.796C148.167 115.339 147.414 112.934 146.455 110.608Z" fill="#F85E00"/>
<path d="M151.533 99.3919L60.1405 154.692L60.3329 155.01L151.725 99.7099L151.533 99.3919Z" fill="#F85E00"/>
<path d="M119.065 45.7337L27.6728 101.034L27.8652 101.352L119.258 46.0517L119.065 45.7337Z" fill="#F85E00"/>
</svg>
