<svg width="131" height="155" viewBox="0 0 131 155" fill="none" xmlns="http://www.w3.org/2000/svg">
<path d="M127.334 84.6481C69.8112 82.2522 43.4674 149.945 -14.0565 147.545L-48.7008 69.6668C8.82313 72.0659 35.1669 4.37352 92.6895 6.76947L127.334 84.6481Z" fill="#00C49A"/>
<path d="M117.239 78.7034C67.1595 81.882 40.742 138.26 -9.33631 141.442L-38.6172 75.6201C11.4625 72.4415 37.88 16.0631 87.9583 12.8814L117.239 78.7034ZM-9.11597 141.108C40.6015 137.696 67.0137 81.8361 116.743 78.4184L87.7366 13.2125C38.0069 16.6303 11.5961 72.4928 -38.1214 75.9051L-9.11597 141.108Z" fill="#FEF9EF"/>
<path d="M53.9507 110.071C38.3402 122.849 21.7107 128.841 7.00593 127.265C-7.5204 126.048 -20.0947 117.258 -23.9795 108.525C-28.1699 99.1051 -22.9131 91.4456 -13.6885 80.7444C-1.7951 67.6663 11.0292 55.4661 24.6839 44.2393C40.2931 31.458 56.9239 25.4694 71.6441 27.0391C86.1732 28.2621 98.7461 37.0489 102.63 45.7787C106.82 55.1986 101.563 62.858 92.3386 73.5592C80.4382 86.638 67.6089 98.8404 53.9507 110.071ZM24.8083 44.5604C11.2205 55.7271 -1.53735 67.8671 -13.3643 80.8843C-22.5458 91.5331 -27.7687 99.1775 -23.6194 108.505C-19.7715 117.155 -7.29832 125.809 7.13557 126.967C21.7229 128.47 38.274 122.477 53.8137 109.763C67.4005 98.5952 80.1582 86.4553 91.9863 73.4392C101.171 62.789 106.391 55.146 102.24 45.8155C98.3935 37.1688 85.9189 28.5117 71.485 27.3534C56.8977 25.8501 40.348 31.8469 24.8083 44.5604Z" fill="#FEF9EF"/>
<path d="M5.53009 108.626C2.57513 109.333 -0.442439 109.746 -3.47862 109.859C-3.53586 109.622 -3.59174 109.389 -3.65207 109.154L-3.20611 108.904C-2.18216 108.12 -1.39949 106.495 1.38884 87.7123C1.66472 87.6191 1.93923 87.5228 2.21236 87.4235C3.55725 89.1942 6.30546 92.4771 8.92149 95.6454C13.1934 100.952 15.0396 103.385 16.3908 103.577L16.7783 103.619C16.8548 103.865 16.9281 104.113 17.0059 104.363C14.1137 105.825 11.0972 107.028 7.99181 107.955L7.80637 107.215C8.23763 107.023 8.66888 106.831 9.09706 106.641C10.0629 106.174 10.2421 105.615 9.88655 104.932C9.40493 103.998 8.01004 102.132 6.61412 100.255C4.74709 100.927 2.8466 101.503 0.920242 101.98C0.992273 104.431 1.2154 106.276 1.67886 107.177C2.00359 107.808 2.61299 108.016 3.50985 107.975C4.11666 107.951 4.71913 107.923 5.31726 107.891C5.39197 108.142 5.45333 108.387 5.53009 108.626ZM1.25971 93.552C1.05971 96.3125 0.941782 98.8594 0.93532 101.01C2.7332 100.715 4.50695 100.289 6.24219 99.7339C6.11273 99.559 5.99561 99.4119 5.86923 99.2356C4.17367 97.0416 2.45626 94.9975 1.24191 93.5451L1.25971 93.552Z" fill="#FEF9EF"/>
<path d="M17.6038 103.152C16.3475 96.9433 14.0678 86.3857 12.9018 84.1295C12.6768 83.6983 12.382 83.5084 12.14 83.6529C11.8084 83.8447 11.49 84.7465 11.3135 86.1497L10.7177 85.8391C11.1963 82.8919 11.7996 80.2582 13.493 79.1876C14.5324 78.5296 15.63 78.8237 16.473 80.4449C17.5712 82.5652 19.4513 91.0719 20.6946 96.9689L20.9499 96.9291C19.6119 87.0448 20.1959 81.9622 22.4731 80.2629C24.1363 79.0248 25.5874 79.8479 26.7177 82.024C29.8698 88.0977 29.7468 96.9125 24.1614 100.615C22.1854 101.926 19.9478 102.792 17.6038 103.152ZM23.2777 85.9454C22.7711 84.9641 22.309 84.8377 21.8148 85.1866C20.6327 86.0298 19.9583 90.0715 21.823 100.592C22.4227 100.556 23.0018 100.36 23.5012 100.027C26.7183 97.935 24.7137 88.7088 23.2777 85.9454Z" fill="#FEF9EF"/>
<path d="M29.3011 81.801C27.9375 79.1752 29.1866 75.0734 32.7039 72.1139C35.5334 69.7483 37.1726 70.1482 37.8559 71.4604C38.2821 72.2856 38.425 72.8641 38.3142 74.1495L38.1732 74.2639C35.967 73.452 32.9546 73.3161 31.5323 74.4986C31.1843 74.786 30.9403 75.1798 30.8378 75.6193C30.7354 76.0589 30.7801 76.52 30.9652 76.9316C32.3008 79.5109 39.1916 77.4492 40.9605 80.8615C42.2714 83.3853 40.7798 87.8791 36.7727 91.1893C33.704 93.7057 31.9333 93.0432 31.1571 91.5472C30.6823 90.6292 30.6412 89.6328 30.7497 88.4664L30.902 88.3028C33.1966 89.4296 36.6267 89.8409 38.2345 88.4947C39.1787 87.7057 39.3205 86.9046 38.9026 86.0979C37.6427 83.7138 30.9755 85.0339 29.3011 81.801Z" fill="#FEF9EF"/>
<path d="M42.5957 78.6064C39.5796 72.7969 40.3919 65.5317 45.3905 61.6217C47.8733 59.6796 51.0603 59.4944 53.0833 63.3951C56.0764 69.1779 55.1049 76.0601 50.1601 80.0495C47.6765 82.0399 44.6047 82.4839 42.5957 78.6064ZM46.8826 76.7547C47.9712 78.8535 49.4773 79.4602 50.7421 78.4548C52.4327 77.1123 51.5969 70.3809 48.7548 64.863C47.8039 63.0241 46.193 62.0654 44.8973 63.0846C43.1325 64.4675 44.6818 72.5125 46.8826 76.7547Z" fill="#FEF9EF"/>
<path d="M59.0511 72.9947C58.5777 69.0356 57.1336 61.3018 56.109 59.3222C55.9022 58.9234 55.6378 58.7938 55.3733 58.9705C54.9924 59.2175 54.7284 60.084 54.553 61.7302L53.9754 61.4521C54.1845 58.123 54.7021 55.081 56.4523 54.0552C57.3887 53.5058 58.3419 54.0559 59.14 55.6012C60.1327 57.5175 61.4329 62.7545 62.1635 66.0641L62.4524 66.0168C60.8689 56.0535 60.5457 51.7767 62.3049 50.9535C63.7003 50.3327 65.0887 52.1099 66.2781 54.7837C62.4533 56.5295 61.377 58.4732 63.414 70.2273C61.9345 71.1069 60.4693 72.0354 59.0511 72.9947Z" fill="#FEF9EF"/>
<path d="M70.7162 65.6395C69.4985 59.5097 67.3888 49.334 66.2129 47.0638C65.9882 46.625 65.6783 46.4012 65.4144 46.4965C65.054 46.6236 64.6873 47.4251 64.4793 48.7575L63.866 48.3993C64.4156 45.6198 65.1381 43.2541 67.0576 42.6917C68.2381 42.3511 69.4748 42.9412 70.3339 44.6069C71.4499 46.7673 73.0793 54.7102 74.1937 60.3177L74.4778 60.3426C73.4495 51.1544 74.4624 47.036 77.3507 46.7105C79.4635 46.4828 81.2009 47.9498 82.3583 50.195C85.6724 56.6246 84.3449 62.7317 77.8593 64.4102C75.5227 65.0462 73.1309 65.4579 70.7162 65.6395ZM77.8169 51.6322C77.2966 50.6201 76.7604 50.3273 76.1566 50.4298C74.7043 50.6737 73.6657 53.8884 75.2657 63.8223C75.8928 63.9128 76.5319 63.8723 77.1425 63.7032C80.8519 62.7099 79.3132 54.5311 77.8169 51.6322Z" fill="#FEF9EF"/>
</svg>
