<svg width="203" height="157" viewBox="0 0 203 157" fill="none" xmlns="http://www.w3.org/2000/svg">
<path d="M85.1569 143.658C117.466 136.297 137.691 104.138 130.33 71.8289C122.969 39.5196 90.8104 19.2949 58.5012 26.6557C26.192 34.0164 5.96726 66.1753 13.328 98.4845C20.6888 130.794 52.8477 151.018 85.1569 143.658Z" fill="#FB9E66"/>
<path d="M143.658 130.33C175.967 122.969 196.192 90.8103 188.831 58.501C181.47 26.1918 149.311 5.9671 117.002 13.3279C84.6929 20.6886 64.4681 52.8475 71.8289 85.1567C79.1897 117.466 111.349 137.691 143.658 130.33Z" fill="#FB9E66"/>
<path d="M142.118 123.57C113.584 130.071 85.0812 112.131 78.5853 83.6174C72.0893 55.1042 90.0255 26.5843 118.542 20.0875C147.059 13.5908 175.575 31.5278 182.071 60.041C188.567 88.5543 170.648 117.07 142.118 123.57ZM118.619 20.4242C90.2739 26.8818 72.4643 55.1958 78.9219 83.5408C85.3795 111.886 113.696 129.691 142.041 123.234C170.386 116.776 188.192 88.4627 181.735 60.1177C175.277 31.7728 146.964 13.9666 118.619 20.4242Z" fill="#F85E00"/>
<path d="M83.6168 136.898C55.0867 143.398 26.5836 125.458 20.0876 96.9445C13.5916 68.4313 31.5278 39.9113 60.0411 33.4154C88.5544 26.9194 117.074 44.8556 123.57 73.3689C130.066 101.882 112.147 130.398 83.6168 136.898ZM60.1178 33.752C31.7728 40.2096 13.9666 68.5229 20.4242 96.8678C26.8819 125.213 55.1951 143.019 83.5401 136.561C111.885 130.104 129.691 101.791 123.234 73.4456C116.776 45.1006 88.4695 27.2929 60.1178 33.752Z" fill="#F85E00"/>
<path d="M49.7191 79.0677L50.1055 77.0179L50.7788 76.8645L50.9286 84.0188C49.0049 86.6419 46.6772 88.2841 43.8595 88.9261C38.682 90.1056 35.1679 87.5351 33.9155 82.0378C32.4713 75.6989 35.5734 67.8497 44.4505 65.8273C47.0561 65.2337 49.4894 65.3451 50.9771 65.8596L50.713 74.2909L50.0398 74.4443L49.6873 72.3999C49.4319 70.6415 48.6289 69.7125 45.0706 70.5232C37.604 72.2243 34.0031 77.8995 35.0063 82.3027C35.4396 84.2047 38.2475 84.8257 42.8258 83.7826C47.7961 82.6574 49.3335 81.1208 49.7191 79.0677Z" fill="#F85E00"/>
<path d="M63.4792 65.6353L67.8593 64.8569C67.4716 68.2066 67.2157 73.8917 67.8024 76.467C68.0916 77.7361 68.7481 78.0221 69.5325 77.8434C70.1283 77.7077 70.7386 77.1225 71.171 74.6372L71.7142 74.7366C71.2697 80.9144 70.5269 82.8613 68.7293 83.2708C67.6386 83.5193 66.2377 82.422 65.8144 80.5638C65.3542 78.5439 66.2155 73.5424 66.7468 70.4964L66.3863 70.4688C63.7932 79.7282 62.2658 84.7433 59.8723 85.2886C57.4788 85.8339 55.792 84.476 55.4231 82.8568C54.6929 79.652 58.5075 74.9302 58.0951 72.9491C57.9417 72.2758 57.2683 71.9157 56.1473 72.1711C55.0263 72.4265 54.1996 72.9477 53.7372 75.4256L53.1519 75.2969C53.6509 69.9955 54.2908 67.4418 56.0514 67.0407C57.1792 66.7837 58.6359 67.971 59.0455 69.7686C59.6636 72.4819 58.3678 77.0371 58.7242 78.7725C58.9481 79.7555 59.8239 79.8534 60.7732 79.6372C65.0808 78.6806 65.3356 72.3229 63.4792 65.6353Z" fill="#F85E00"/>
<path d="M84.7093 66.9459C80.4398 67.4016 79.8307 70.2458 79.4828 80.4385L74.0596 81.674C74.5413 77.1202 77.7698 70.3081 77.4086 68.7225C77.2398 67.9819 76.4755 67.5647 75.1391 67.8691C73.8699 68.1583 73.031 68.7035 72.6161 71.1104L72.0393 71.0187C72.535 65.7181 73.2119 63.1559 74.9018 62.7709C76.1002 62.4979 77.454 64.0414 78.3291 67.8825C78.7225 69.6094 78.6896 73.6927 78.8619 77.0601L79.1322 77.1118C79.5745 64.8933 80.9075 61.4806 83.9709 60.7827L84.7093 66.9459Z" fill="#F85E00"/>
<path d="M89.1567 64.6756C88.029 64.9326 87.19 65.4778 86.7752 67.8847L86.1983 67.793C86.694 62.4924 87.3339 59.9386 89.0979 59.5367C90.2223 59.2806 91.6713 60.4342 92.0886 62.2655C92.5779 64.4132 91.3758 69.2091 91.8091 71.1111C92.0392 72.121 92.6582 72.3978 93.2911 72.2536C94.0654 72.0773 94.4322 71.4023 94.916 69.1427L95.4668 69.2757C95.035 75.5249 93.9758 77.5439 92.1344 77.9634C90.4512 78.3469 88.8065 77.0183 88.4376 75.3991C87.6913 72.1236 91.3979 67.2387 91.0143 65.3998C90.8803 64.7646 90.2474 64.4272 89.1567 64.6756ZM88.2174 55.5163C87.7756 53.5773 88.7654 52.3886 90.6674 51.9553C91.9702 51.6585 92.9755 52.1696 93.3045 53.6137C93.77 55.6571 92.7886 56.8829 90.8866 57.3162C89.5838 57.613 88.5701 57.0649 88.2174 55.5163Z" fill="#F85E00"/>
<path d="M110.667 62.5514C111.862 67.7996 109.171 74.0467 104.31 75.1541C101.421 75.8122 98.5385 73.7281 97.3989 68.7257C96.2109 63.5111 98.9109 57.3011 103.772 56.1936C106.707 55.5249 109.535 57.586 110.667 62.5514ZM109.57 62.1356C109.241 60.6914 107.582 60.4036 105.08 60.9735C100.468 62.0242 97.7894 66.0411 98.4881 69.1078C98.8324 70.6194 100.445 71.0309 102.91 70.4695C107.75 69.3667 110.306 65.3036 109.583 62.1325L109.57 62.1356Z" fill="#F85E00"/>
<path d="M124.802 52.1815C124.655 54.4752 124.66 56.7761 124.817 59.0692L124.143 59.2226C123.974 56.5204 122.867 56.2166 119.625 56.9551C116.034 57.7734 114.712 59.1369 114.942 60.1468C115.472 62.473 124.849 58.7432 125.755 62.7223C126.341 65.2942 123.28 70.8819 119.23 71.8045C117.394 72.2148 115.47 71.9112 113.849 70.9554C113.992 68.7247 113.978 66.4868 113.807 64.2581L114.48 64.1047C115.091 68.3389 118.213 68.4421 122.017 67.5755C123.811 67.1667 124.337 66.3812 124.12 65.4319C123.558 62.9643 114.785 63.9645 113.952 60.312C113.271 57.3193 115.204 53.6176 120.031 52.5178C121.592 52.1431 123.204 52.0295 124.802 52.1815Z" fill="#F85E00"/>
<path d="M130.152 55.3359C129.025 55.5928 128.186 56.138 127.771 58.5449L127.194 58.4532C127.69 53.1526 128.333 50.5981 130.094 50.197C131.221 49.94 132.667 51.0944 133.084 52.9257C133.574 55.0735 132.372 59.8693 132.805 61.7713C133.035 62.7812 133.654 63.058 134.287 62.9139C135.061 62.7375 135.428 62.0625 135.912 59.8029L136.463 59.9359C136.034 66.1844 134.975 68.2033 133.13 68.6236C131.447 69.0071 129.802 67.6785 129.433 66.0593C128.687 62.7838 132.39 57.8997 132.007 56.0607C131.876 55.4248 131.243 55.0874 130.152 55.3359ZM129.213 46.1766C128.771 44.2375 129.761 43.0488 131.663 42.6155C132.966 42.3187 133.971 42.8298 134.3 44.274C134.766 46.3174 133.788 47.5423 131.886 47.9756C130.58 48.2732 129.566 47.7251 129.213 46.1766Z" fill="#F85E00"/>
<path d="M141.272 43.6488L141.88 43.5493C141.876 44.5133 141.863 46.0709 141.832 47.8945L146.905 46.7387L147.057 51.6333C145.349 51.9091 143.571 52.2788 141.802 52.6429C141.834 55.3799 141.942 57.9226 142.26 59.2099C142.578 60.4336 143.294 60.8263 144.247 60.6093C145.2 60.3922 146.345 59.5753 146.991 56.7227L147.505 56.8642C147.258 63.2555 145.367 65.85 143.502 66.2749C141.738 66.6768 139.995 65.8521 139.465 63.5259C138.8 60.6039 139.648 56.5578 140.96 52.8489L137.122 53.7232L136.969 53.0499C139.057 51.009 140.492 48.1997 141.272 43.6488Z" fill="#F85E00"/>
<path d="M150.892 70.0977L150.76 65.4607C152.227 65.5777 153.704 65.4869 155.146 65.1909C156.906 64.7897 158.918 63.7012 159.508 61.5661L154.169 61.2279C153.651 57.4932 155.686 53.2475 154.943 51.1363C154.672 50.2704 153.791 49.9823 152.617 50.2499C151.27 50.5567 150.512 51.1011 149.905 53.3147L149.328 53.223C150.087 47.6037 150.719 45.4946 152.022 45.1978C153.183 44.9332 154.507 46.781 155.936 50.3472C157.256 53.5934 158.403 56.908 159.37 60.2767L159.872 60.1976C161.019 54.0085 159.875 48.0084 158.634 43.8825C160.401 43.4843 162.19 43.1948 163.993 43.0158C163.214 47.6162 162.121 53.2016 161.405 56.7748C159.79 64.8092 158.027 69.1025 154.644 69.8732C153.411 70.133 152.147 70.2086 150.892 70.0977Z" fill="#F85E00"/>
<path d="M64.4306 97.1362C64.2816 99.4299 64.2864 101.731 64.4452 104.024L63.7719 104.177C63.5991 101.476 62.4923 101.172 59.2539 101.91C55.6619 102.728 54.3401 104.092 54.5702 105.102C55.0994 107.424 64.4764 103.695 65.3829 107.674C65.9688 110.246 62.9075 115.833 58.8578 116.756C57.0213 117.167 55.097 116.864 53.4766 115.907C53.6202 113.677 53.6053 111.441 53.4319 109.214L54.1052 109.06C54.715 113.291 57.8336 113.395 61.6241 112.531C63.4218 112.122 63.9475 111.336 63.7312 110.387C63.1691 107.919 54.3921 108.92 53.5599 105.268C52.8774 102.272 54.8136 98.5694 59.6377 97.4704C61.206 97.0959 62.8254 96.983 64.4306 97.1362Z" fill="#F85E00"/>
<path d="M67.9153 106.495C66.6238 100.826 70.3011 95.0197 74.1758 94.137C77.2056 93.4467 79.5536 95.4685 80.003 97.4412C80.6288 100.188 77.2477 102.258 68.908 105.489C68.8678 105.942 68.8963 106.397 68.9927 106.841C69.3862 108.568 71.7943 108.724 73.5179 108.331C76.2648 107.705 79.9132 105.316 80.5245 102.808L81.088 103.012C80.395 108.099 78.0708 112.368 74.6539 113.147C71.7487 113.808 69.1271 111.814 67.9153 106.495ZM68.9535 105.036C75.0367 102.206 77.5066 100.457 77.2734 99.4335C77.1377 98.8376 76.3774 98.2672 74.7919 98.6284C71.6409 99.3463 69.3239 102.356 68.9367 105.04L68.9535 105.036Z" fill="#F85E00"/>
<path d="M83.2896 102.992C81.998 97.3231 85.6754 91.5172 89.5501 90.6344C92.5798 89.9442 94.9278 91.9659 95.3773 93.9386C96.0031 96.6856 92.6219 98.7555 84.2822 101.987C84.242 102.439 84.2706 102.895 84.367 103.338C84.7604 105.065 87.1685 105.221 88.8921 104.828C91.6424 104.202 95.2874 101.813 95.8987 99.305L96.4623 99.5095C95.7692 104.597 93.445 108.866 90.0281 109.644C87.1398 110.302 84.5013 108.311 83.2896 102.992ZM84.3278 101.534C90.411 98.7032 92.8808 96.9543 92.6477 95.9309C92.5119 95.335 91.7517 94.7646 90.1661 95.1258C87.032 95.8399 84.7149 98.8501 84.3278 101.534Z" fill="#F85E00"/>
<path d="M104.986 97.5676C110.27 95.5493 112.431 92.9429 112.165 91.6827C112.005 90.9791 111.181 90.6108 109.528 90.9874C106.29 91.7252 103.943 95.2591 103.679 106.13L98.7102 107.262C99.3508 100.484 102.137 88.8079 101.516 86.0845C101.38 85.4853 100.691 85.2103 99.8086 85.4113C98.7815 85.709 97.8487 86.2667 97.1002 87.0304L96.6165 86.6945C97.5139 84.121 98.5723 82.0987 99.9121 81.7935C100.861 81.5772 101.881 82.308 102.154 83.5064C102.998 87.2095 103.082 94.7435 103.27 100.604L103.63 100.631C103.972 90.7377 106.341 86.8231 109.159 86.1812C109.606 86.0726 110.07 86.0555 110.523 86.131C110.977 86.2066 111.41 86.3732 111.797 86.6208C112.185 86.8685 112.518 87.192 112.777 87.5719C113.036 87.9517 113.215 88.3801 113.304 88.8312C113.729 90.6995 112.283 96.5497 108.192 97.4816C107.283 97.6653 106.355 97.74 105.428 97.7041C108.502 99.3374 110.571 99.7938 111.77 99.5207C112.507 99.3528 113.348 98.6794 114.047 95.7015L114.687 95.7434C114.416 102.324 113.209 104.377 111.435 104.781C109.469 105.215 107.459 102.079 104.986 97.5676ZM103.574 104.224C103.596 104.478 103.582 104.743 103.605 104.996C103.582 104.743 103.596 104.478 103.574 104.224Z" fill="#F85E00"/>
<path d="M116.644 95.3933C115.352 89.7243 119.03 83.9183 122.904 83.0356C125.934 82.3453 128.282 84.3671 128.731 86.3398C129.357 89.0868 125.976 91.1566 117.636 94.3881C117.596 94.8401 117.625 95.2957 117.721 95.7392C118.115 97.4661 120.523 97.6222 122.246 97.2295C124.993 96.6037 128.642 94.2144 129.253 91.7062L129.816 91.9106C129.123 96.9978 126.799 101.267 123.382 102.045C120.494 102.703 117.855 100.712 116.644 95.3933ZM117.682 93.9351C123.765 91.1044 126.235 89.3554 126.002 88.3321C125.866 87.7362 125.106 87.1658 123.52 87.527C120.386 88.241 118.069 91.2512 117.682 93.9351Z" fill="#F85E00"/>
<path d="M143.593 84.7352C139.326 85.1868 138.713 88.0317 138.369 98.2236L132.942 99.4599C133.424 94.9061 136.652 88.094 136.291 86.5085C136.122 85.7678 135.361 85.3498 134.022 85.6551C132.756 85.9435 131.917 86.4887 131.499 88.8963L130.925 88.8039C131.422 83.5066 132.098 80.9411 133.788 80.5561C134.986 80.283 136.337 81.8307 137.212 85.6684C137.605 87.3954 137.572 91.4787 137.748 94.8452L138.018 94.897C138.457 82.6793 139.793 79.2657 142.857 78.5678L143.593 84.7352Z" fill="#F85E00"/>
<path d="M157.201 76.0009C157.052 78.2946 157.057 80.5956 157.216 82.8886L156.543 83.042C156.37 80.3405 155.263 80.0367 152.025 80.7745C148.433 81.5928 147.111 82.9563 147.341 83.9662C147.87 86.289 157.247 82.5593 158.154 86.5383C158.74 89.1102 155.678 94.6979 151.629 95.6206C149.792 96.0322 147.868 95.7286 146.247 94.7714C146.391 92.5421 146.376 90.3055 146.203 88.0783L146.876 87.9249C147.469 92.1595 150.604 92.2597 154.395 91.3961C156.193 90.9866 156.718 90.2011 156.502 89.2517C155.94 86.7842 147.163 87.7852 146.331 84.1327C145.648 81.1366 147.584 77.4341 152.408 76.3351C153.977 75.9609 155.596 75.848 157.201 76.0009Z" fill="#F85E00"/>
<path d="M20.2559 96.9062C22.4338 106.533 27.274 115.353 34.2244 122.361L26.2359 124.181C19.8846 116.747 15.4424 107.876 13.2946 98.3378C11.1468 88.7992 11.3582 78.8806 13.9105 69.4422L21.9258 67.6161C18.6028 77.0236 18.0237 87.182 20.2559 96.9062Z" fill="#F85E00"/>
<path d="M188.828 58.5018C191.004 67.9837 190.831 77.8536 188.324 87.2535L180.339 89.0727C183.57 79.6927 184.1 69.5933 181.868 59.9267C179.636 50.2601 174.731 41.4156 167.714 34.4024L175.722 32.5778C182.156 40.0098 186.658 48.9142 188.828 58.5018Z" fill="#F85E00"/>
</svg>
