<svg width="237" height="228" viewBox="0 0 237 228" fill="none" xmlns="http://www.w3.org/2000/svg">
<path d="M153.155 223.823L6.99523 144.378C5.76713 143.711 4.7364 142.731 4.00668 141.539C3.27695 140.347 2.87395 138.984 2.8382 137.586C2.80244 136.189 3.13519 134.807 3.80299 133.579C4.47079 132.351 5.45009 131.321 6.64245 130.591L77.5816 87.1577L83.3517 83.6247L104.095 70.9279L148.517 43.7221C149.709 42.9933 151.073 42.5909 152.47 42.5554C153.866 42.5199 155.248 42.8526 156.476 43.5199C157.704 44.1873 158.734 45.1659 159.464 46.3575C160.194 47.5491 160.598 48.9118 160.635 50.3087L161.976 102.389L162.599 126.699L162.772 133.463L164.917 216.621C164.953 218.018 164.621 219.401 163.954 220.629C163.286 221.857 162.308 222.888 161.116 223.618C159.924 224.348 158.56 224.751 157.163 224.787C155.766 224.823 154.384 224.491 153.155 223.823Z" fill="#339989"/>
<path d="M63.6633 154.465C61.59 158.279 57.2341 158.389 52.8553 156.009C47.4432 153.067 45.9352 148.873 47.8931 145.271C48.0312 145.015 48.1932 144.772 48.377 144.546L51.7184 143.814C51.2828 143.148 51.0455 142.372 51.0341 141.577C51.0227 140.781 51.2376 139.999 51.6538 139.321C52.0153 138.624 52.5374 138.023 53.177 137.568C53.8166 137.112 54.5554 136.816 55.3323 136.702C54.969 135.057 55.2177 133.336 56.0318 131.861C58.0753 128.101 62.7033 127.237 66.5691 129.338C68.1063 130.137 69.378 131.366 70.229 132.875L74.0628 132.04L74.6966 135.441L71.0566 136.173C71.0787 137.431 70.7691 138.672 70.1589 139.772C68.0577 143.638 63.5539 144.361 59.7211 142.277C58.5064 141.634 57.453 140.724 56.6397 139.615C56.3423 139.581 56.0417 139.637 55.7762 139.775C55.5108 139.913 55.2927 140.128 55.15 140.391C54.2637 142.022 56.4741 143.361 59.4017 145.503C62.5742 147.849 65.8343 150.471 63.6633 154.465ZM59.9765 152.969C60.8747 151.316 59.3028 150.025 56.405 147.994C55.4139 147.335 54.4584 146.624 53.5424 145.864L51.1989 147.049C51.1245 147.232 51.0608 147.419 51.008 147.609C50.3472 149.847 51.8795 151.805 54.3786 153.163C56.9456 154.554 59.0922 154.595 59.9785 152.965L59.9765 152.969ZM59.8161 133.946C58.7166 135.969 59.1681 138.099 61.3483 139.284C63.5286 140.469 65.5162 139.65 66.6096 137.639C67.7031 135.627 67.3053 133.398 65.1764 132.241C63.0475 131.084 60.9453 131.868 59.818 133.942L59.8161 133.946Z" fill="#00C49A"/>
<path d="M73.2798 144.824C76.0084 139.804 81.8244 137.602 87.1632 140.504C92.502 143.406 93.839 149.487 91.1064 154.514C88.3738 159.541 82.5017 161.804 77.1628 158.902C71.824 156 70.5332 149.877 73.2798 144.824ZM87.2919 152.441C89.0466 149.212 88.8935 145.564 85.4344 143.684C81.9753 141.804 78.8589 143.651 77.0943 146.898C75.3296 150.144 75.4286 153.848 78.8876 155.729C82.3467 157.609 85.5293 155.684 87.2919 152.441Z" fill="#00C49A"/>
<path d="M94.5179 156.368C97.2465 151.348 103.062 149.146 108.401 152.048C113.74 154.949 115.073 161.029 112.341 166.056C109.608 171.083 103.74 173.348 98.4009 170.446C93.0621 167.544 91.7713 161.421 94.5179 156.368ZM108.53 163.985C110.285 160.756 110.132 157.108 106.672 155.228C103.213 153.348 100.097 155.195 98.3324 158.442C96.5677 161.688 96.6667 165.392 100.126 167.273C103.585 169.153 106.767 167.228 108.53 163.985Z" fill="#00C49A"/>
<path d="M115.914 168.041C118.603 163.094 123.729 160.388 128.602 163.037C130.764 164.212 132.381 166.311 132.547 168.836L137.888 159.009L141.615 161.034L127.988 186.105L124.565 184.245L125.878 181.489C124.778 182.12 123.53 182.451 122.262 182.447C120.993 182.443 119.748 182.105 118.651 181.467C113.732 178.779 113.205 173.024 115.914 168.041ZM129.376 175.358C131.169 172.061 130.929 168.607 127.719 166.863C124.509 165.118 121.415 166.792 119.637 170.065C117.858 173.337 118.117 176.834 121.346 178.588C124.574 180.343 127.564 178.693 129.376 175.358Z" fill="#00C49A"/>
<path d="M87.9486 117.733C90.6991 112.672 96.1329 110.404 100.838 112.962C102.341 113.769 103.551 115.03 104.296 116.565C105.041 118.1 105.283 119.831 104.987 121.511L111.478 109.569L113.174 110.491L99.5529 135.551L97.9736 134.693L100.467 129.939C97.7575 132.392 94.1043 132.912 90.9384 131.192C86.2261 128.63 85.1801 122.826 87.9486 117.733ZM102.811 125.811C105.143 121.52 104.284 116.848 100.363 114.716C96.4426 112.585 91.9752 114.429 89.6708 118.669C87.3664 122.908 88.2325 127.699 92.1496 129.828C96.0667 131.957 100.459 130.138 102.811 125.811Z" fill="#00C49A"/>
<path d="M109.667 129.519C112.426 124.444 118.069 122.342 122.982 125.012C127.896 127.683 129.241 133.584 126.483 138.659C123.724 143.734 117.956 145.891 113.076 143.239C108.195 140.586 106.873 134.66 109.667 129.519ZM124.757 137.721C127.061 133.481 126.217 128.703 122.172 126.504C118.126 124.305 113.737 126.215 111.422 130.473C109.108 134.731 109.865 139.547 113.892 141.736C117.919 143.925 122.434 141.993 124.757 137.721Z" fill="#00C49A"/>
<path d="M123.421 104.355C131.607 108.805 141.85 105.776 146.299 97.5897C150.749 89.4038 147.72 79.1607 139.534 74.7113C131.348 70.2618 121.105 73.2908 116.655 81.4768C112.206 89.6627 115.235 99.9057 123.421 104.355Z" fill="#339989"/>
<path d="M123.224 104.718C120.218 103.086 117.763 100.599 116.171 97.5715C114.578 94.5442 113.92 91.1125 114.278 87.7108C114.636 84.309 115.995 81.0899 118.184 78.4607C120.372 75.8316 123.29 73.9105 126.571 72.9405C129.851 71.9705 133.345 71.9952 136.611 73.0114C139.877 74.0277 142.769 75.9898 144.919 78.6496C147.07 81.3094 148.384 84.5474 148.694 87.9539C149.004 91.3604 148.297 94.7823 146.662 97.7869C144.467 101.808 140.768 104.796 136.375 106.095C131.982 107.394 127.253 106.899 123.224 104.718ZM139.339 75.0704C136.48 73.5144 133.223 72.8413 129.981 73.1361C126.74 73.4309 123.658 74.6805 121.127 76.7267C118.595 78.7729 116.727 81.5239 115.759 84.6317C114.791 87.7395 114.767 91.0646 115.689 94.1864C116.611 97.3082 118.438 100.087 120.939 102.17C123.439 104.253 126.502 105.548 129.739 105.891C132.976 106.234 136.242 105.609 139.124 104.096C142.006 102.582 144.374 100.248 145.929 97.3885C148.007 93.5542 148.48 89.0523 147.244 84.87C146.007 80.6877 143.163 77.1662 139.335 75.0777L139.339 75.0704Z" fill="#00C49A"/>
<path d="M137.282 83.0901L131.475 89.5369L133.727 81.1581C133.81 80.8551 133.96 80.5746 134.166 80.3376C134.372 80.1006 134.629 79.9132 134.918 79.7894C135.206 79.6656 135.519 79.6086 135.833 79.6227C136.147 79.6367 136.453 79.7215 136.729 79.8706C137.005 80.0214 137.243 80.2326 137.425 80.4882C137.608 80.7439 137.73 81.0374 137.783 81.347C137.836 81.6565 137.819 81.974 137.732 82.2759C137.645 82.5777 137.491 82.856 137.282 83.0901Z" fill="#00C49A"/>
<path d="M129.223 97.9157L131.475 89.5369L125.669 95.9838C125.46 96.2178 125.306 96.4961 125.219 96.798C125.132 97.0998 125.115 97.4173 125.168 97.7269C125.221 98.0364 125.343 98.33 125.526 98.5856C125.708 98.8413 125.946 99.0524 126.221 99.2033C126.498 99.3524 126.804 99.4371 127.118 99.4512C127.432 99.4652 127.745 99.4082 128.033 99.2844C128.322 99.1606 128.579 98.9732 128.785 98.7362C128.991 98.4992 129.141 98.2188 129.223 97.9157Z" fill="#00C49A"/>
<path d="M131.022 80.8695L131.475 89.5369L127.146 82.0189C126.99 81.7465 126.898 81.4426 126.877 81.1297C126.855 80.8168 126.904 80.5031 127.02 80.2119C127.137 79.9206 127.317 79.6594 127.548 79.4476C127.78 79.2358 128.056 79.0788 128.356 78.9885C128.657 78.9007 128.974 78.8819 129.283 78.9334C129.593 78.985 129.886 79.1057 130.142 79.2865C130.399 79.4672 130.611 79.7034 130.763 79.9775C130.915 80.2516 131.004 80.5565 131.022 80.8695Z" fill="#00C49A"/>
<path d="M135.809 97.0569L131.475 89.5369L131.931 98.2007C131.948 98.5143 132.036 98.8201 132.188 99.095C132.34 99.37 132.552 99.607 132.809 99.7884C133.065 99.9698 133.36 100.091 133.669 100.143C133.979 100.194 134.297 100.176 134.598 100.087C134.899 99.997 135.175 99.8401 135.406 99.6282C135.637 99.4164 135.818 99.1552 135.934 98.8639C136.051 98.5727 136.1 98.259 136.078 97.9461C136.056 97.6333 135.964 97.3293 135.809 97.0569Z" fill="#00C49A"/>
<path d="M138.995 85.2035L131.475 89.5369L140.143 89.0835C140.456 89.0658 140.761 88.9777 141.035 88.8257C141.31 88.6738 141.546 88.4619 141.727 88.2059C141.908 87.9499 142.03 87.6563 142.081 87.347C142.133 87.0377 142.115 86.7207 142.027 86.4196C141.938 86.1185 141.781 85.8416 141.57 85.6095C141.358 85.3774 141.097 85.1962 140.805 85.0792C140.514 84.9623 140.199 84.9128 139.886 84.9343C139.573 84.9558 139.268 85.0478 138.995 85.2035Z" fill="#00C49A"/>
<path d="M122.812 89.9923L131.475 89.5369L123.957 93.8667C123.685 94.0221 123.381 94.1141 123.068 94.1358C122.755 94.1575 122.442 94.1084 122.15 93.992C121.859 93.8757 121.598 93.6952 121.386 93.4639C121.174 93.2326 121.017 92.9565 120.927 92.6562C120.84 92.3551 120.821 92.0381 120.873 91.7288C120.925 91.4195 121.046 91.1259 121.227 90.8699C121.408 90.6139 121.645 90.402 121.919 90.2501C122.194 90.0982 122.499 90.01 122.812 89.9923Z" fill="#00C49A"/>
<path d="M139.854 91.7889L131.475 89.5369L137.922 95.3433C138.156 95.5527 138.435 95.7066 138.736 95.7934C139.038 95.8802 139.356 95.8977 139.665 95.8446C139.975 95.7915 140.268 95.6692 140.524 95.4867C140.78 95.3043 140.991 95.0665 141.142 94.791C141.291 94.5146 141.376 94.2081 141.39 93.8943C141.404 93.5806 141.347 93.2677 141.223 92.9791C141.099 92.6904 140.912 92.4335 140.675 92.2274C140.438 92.0213 140.157 91.8714 139.854 91.7889Z" fill="#00C49A"/>
<path d="M125.029 83.7305L131.475 89.5369L123.097 87.2849C122.794 87.2024 122.513 87.0525 122.276 86.8464C122.039 86.6403 121.852 86.3834 121.728 86.0948C121.604 85.8061 121.547 85.4932 121.561 85.1795C121.575 84.8657 121.66 84.5592 121.809 84.2828C121.96 84.0073 122.171 83.7695 122.427 83.5871C122.682 83.4047 122.976 83.2823 123.285 83.2292C123.595 83.1761 123.913 83.1936 124.214 83.2804C124.516 83.3672 124.795 83.5211 125.029 83.7305Z" fill="#00C49A"/>
</svg>
