<svg width="157" height="188" viewBox="0 0 157 188" fill="none" xmlns="http://www.w3.org/2000/svg">
<path d="M115.261 166.459L88.9107 174.628L55.4958 157.035C43.7542 150.842 34.5234 140.77 29.3769 128.533C28.6589 126.819 28.0246 125.069 27.4825 123.32L17.9342 92.5236C16.1319 86.8303 16.0106 80.7379 17.5849 74.9774C19.1592 69.2169 22.3623 64.033 26.8097 60.0478C32.0773 55.2514 38.8233 52.3953 45.9335 51.9511L42.2013 39.9134C40.4316 39.1945 38.8438 38.0914 37.5526 36.6837C36.2615 35.276 35.2993 33.599 34.7356 31.7739L32.5117 24.6008L76.8965 10.8397L79.1243 18.0252C79.6902 19.8474 79.8441 21.7726 79.5751 23.6616C79.3061 25.5506 78.6208 27.3562 77.5687 28.948L81.3009 40.9858C85.3751 38.5535 89.9479 37.077 94.6753 36.6674C99.4026 36.2578 104.161 36.9258 108.593 38.6211C113.025 40.3163 117.014 42.9948 120.262 46.4548C123.509 49.9148 125.929 54.0662 127.339 58.5967L136.888 89.3934C137.429 91.1388 137.896 92.9409 138.275 94.7535C140.952 107.761 139.034 121.294 132.848 133.046L115.261 166.459ZM90.1016 161.709L106.961 156.482L122.248 127.466C127.137 118.18 128.655 107.486 126.543 97.2071C126.241 95.7743 125.872 94.3421 125.442 92.9557L120.523 77.0901L112.938 73.0953L112.384 72.5886C109.621 70.1211 106.566 68.0017 103.287 66.2778C97.4438 63.1799 90.9883 61.4112 84.382 61.0982L78.0205 60.7979L75.7476 63.4665L74.8745 60.6505L70.9496 60.4631L73.8969 57.4972L72.3263 52.4314L64.5127 27.2296L52.0201 31.1028L63.2598 67.3552L59.8595 66.4421L54.7969 70.2877C49.526 74.2816 45.2029 79.391 42.1368 85.2504C40.4084 88.5268 39.0881 92.0028 38.2056 95.6005L35.2145 107.779L38.9323 119.77C39.3621 121.157 39.8686 122.55 40.4354 123.907C44.5056 133.577 51.8017 141.536 61.0812 146.43L90.1016 161.709Z" fill="#F85E00"/>
<path d="M100.843 42.7828C97.2546 42.273 93.5983 42.5471 90.1259 43.5862C86.6536 44.6253 83.4477 46.4047 80.7291 48.8018C79.8404 49.5868 79.0079 50.4332 78.2377 51.3347C78.0305 50.6663 78.0295 50.6632 78.0295 50.6632L70.8338 27.4542C72.0112 26.6093 72.8929 25.4153 73.3539 24.0414C73.8149 22.6675 73.832 21.1833 73.4025 19.7992L72.9497 18.3386L40.0115 28.5508L40.4644 30.0114C40.8928 31.3964 41.7463 32.6114 42.9039 33.4841C44.0616 34.3569 45.4646 34.843 46.914 34.8737L54.318 58.7542C49.9458 57.6007 45.3445 57.6385 40.9919 58.8637C36.6393 60.0889 32.6939 62.4568 29.5654 65.7216C26.4369 68.9864 24.2392 73.0291 23.2007 77.43C22.1621 81.8309 22.3204 86.4296 23.6591 90.7486L33.2074 121.545C33.6977 123.127 34.2663 124.687 34.9032 126.216C39.4911 137.184 47.7613 146.208 58.2885 151.732L78.6921 162.478L89.5062 168.169L111.115 161.469L116.814 150.659L127.56 130.256C133.115 119.745 134.83 107.625 132.409 95.9854C132.069 94.3643 131.655 92.7559 131.165 91.1746L121.616 60.3778C120.214 55.7569 117.509 51.6388 113.824 48.5178C110.139 45.3968 105.632 43.4054 100.843 42.7828ZM36.825 82.4606C34.861 86.171 33.3603 90.1085 32.3565 94.1848L30.6218 88.5899C29.7034 85.6218 29.5668 82.4668 30.2254 79.4304C30.884 76.394 32.3153 73.5791 34.3809 71.2582C36.4465 68.9372 39.0763 67.1889 42.0158 66.1825C44.9552 65.1761 48.1048 64.9456 51.1594 65.5135C45.1914 70.0428 40.2933 75.83 36.8126 82.4645L36.825 82.4606ZM106.096 60.9837C99.4711 57.483 92.1575 55.4821 84.6732 55.1228C86.8708 52.9265 89.5983 51.3349 92.5916 50.5019C95.5848 49.669 98.7424 49.6229 101.759 50.3683C104.775 51.1136 107.548 52.6251 109.808 54.7564C112.069 56.8877 113.741 59.5665 114.663 62.5336L116.398 68.1286C113.265 65.3349 109.801 62.9366 106.084 60.9876L106.096 60.9837Z" fill="#FB9E66"/>
<path d="M56.8147 103.053C59.0354 102.13 60.0449 100.956 60.6796 98.4627L61.1638 96.7421L61.7827 96.5502C61.7693 99.4172 62.216 105.781 62.5501 108.5L61.9312 108.692L61.2894 107.245C60.0766 104.603 59.101 103.731 56.8787 104.146C57.3802 112.962 57.7889 113.022 59.1228 112.893L61.1389 112.58L61.2468 113.683L48.6675 117.583L48.5968 116.469L49.9305 115.716C50.8744 115.227 50.8217 114.422 50.3438 106.185C49.7608 95.5524 49.5199 95.3116 48.6527 95.4245L47.4892 95.5885L47.4184 94.4741L64.5404 89.1656C64.7106 91.7382 64.9715 95.107 65.3933 98.2291L64.465 98.517L62.9348 95.8572C61.3034 92.9913 59.5679 92.1964 56.3811 92.913C56.2724 94.0831 56.4059 96.1549 56.7763 102.152L56.8147 103.053Z" fill="#F85E00"/>
<path d="M66.8037 89.7698L65.7114 89.9117L65.6406 88.7973L76.4715 85.4393L76.5422 86.5537L75.4529 87.0881C74.5315 87.5298 74.4923 88.3662 74.9709 97.1524C75.5506 107.118 75.706 107.619 76.622 107.532L77.7248 107.424L77.7956 108.539L66.9647 111.897L66.8569 110.794L67.9953 110.166C68.8946 109.653 68.8865 108.872 68.4282 100.195C67.8719 90.1848 67.7165 89.6835 66.8037 89.7698Z" fill="#F85E00"/>
<path d="M78.365 108.362L78.2943 107.248L79.4933 106.564C80.4523 105.992 80.373 105.233 79.9343 97.374C79.3428 86.3638 79.0487 86.17 78.1359 86.2563L77.0435 86.3982L77.0068 85.2733L87.9058 81.8942L87.9765 83.0086L86.8532 83.5536C85.9318 83.9953 85.9143 84.825 86.4052 93.6073C86.8479 101.228 87.031 103.284 87.2317 104.358C89.3019 102.699 90.2748 100.399 91.7398 96.5359L93.1541 92.2577L94.128 91.9964C93.9134 96.0961 93.8013 100.286 93.9088 103.543L78.365 108.362Z" fill="#F85E00"/>
<path d="M95.1745 103.15L95.1038 102.036L96.3028 101.352C97.2618 100.78 97.1825 100.021 96.7438 92.1623C96.1523 81.1521 95.8551 80.9594 94.9423 81.0456L93.85 81.1876L93.8163 80.0617L104.709 76.6845L104.78 77.7989L103.656 78.3439C102.735 78.7856 102.718 79.6153 103.209 88.3976C103.648 96.0187 103.834 98.0742 104.032 99.1493C106.105 97.4889 107.075 95.1903 108.543 91.3262L109.957 87.048L110.934 86.7858C110.717 90.8864 110.605 95.0763 110.715 98.3322L95.1745 103.15Z" fill="#F85E00"/>
<path d="M73.5895 122.4L72.4971 122.542L72.4264 121.427L83.2572 118.069L83.328 119.184L82.2387 119.718C81.3204 120.159 81.2781 120.996 81.7567 129.783C82.3395 139.747 82.4949 140.249 83.4078 140.162L84.5106 140.054L84.5814 141.169L73.7443 144.529L73.6365 143.426L74.7749 142.798C75.6742 142.285 75.6661 141.504 75.2108 132.826C74.6577 122.815 74.5023 122.314 73.5895 122.4Z" fill="#F85E00"/>
<path d="M102.896 136.04C99.9346 133.197 91.8871 124.8 88.6128 121.701C88.256 121.352 87.8801 121.024 87.4869 120.717C88.5406 134.104 91.8432 135.861 95.2998 135.807L98.3401 135.767L98.4449 136.871L85.1941 140.979L85.1233 139.864L85.7945 139.382C87.2973 138.288 87.4376 136.837 86.4684 119.937C85.9035 119.472 85.2014 119.207 84.4706 119.182L83.4319 119.114L83.3717 118.034L93.6301 114.853C96.2102 118.412 99.1218 121.719 102.326 124.728C101.531 115.219 100.153 114.941 98.6726 114.969L96.8368 114.989L96.7289 113.886L105.059 111.303L105.164 112.407L104.456 112.901C103.459 113.604 102.815 114.94 103.568 128.101C103.681 130.654 103.979 134.48 104.143 135.643L102.896 136.04Z" fill="#F85E00"/>
</svg>
