<svg width="174" height="202" viewBox="0 0 174 202" fill="none" xmlns="http://www.w3.org/2000/svg">
<path d="M142.62 98.1426C144.1 102.381 143.837 107.034 141.886 111.078C139.936 115.122 136.459 118.226 132.221 119.706C130.44 120.332 128.548 120.574 126.667 120.417L141.476 162.813L82.2768 183.492L67.4663 141.092C66.0926 142.383 64.4618 143.37 62.6805 143.989C58.4419 145.469 53.7889 145.205 49.7449 143.255C45.7009 141.305 42.5973 137.828 41.1168 133.59C40.2017 130.967 39.8124 128.189 39.9713 125.415C40.1301 122.642 40.834 119.927 42.0426 117.426C43.2512 114.924 44.9409 112.686 47.0151 110.837C49.0893 108.989 51.5074 107.568 54.1311 106.655L115.697 85.1498C120.991 83.3054 126.799 83.6378 131.848 86.0741C136.896 88.5104 140.77 92.8512 142.62 98.1426Z" fill="#339989"/>
<path d="M152.009 167.886L77.2011 194.017L62.7216 152.564C56.6821 153.938 50.3482 153.041 44.9272 150.045C39.5062 147.05 35.3771 142.164 33.3266 136.319C30.7533 128.952 31.2119 120.865 34.6015 113.836C37.9911 106.807 44.0341 101.413 51.4011 98.8395L112.967 77.3341C120.334 74.7608 128.422 75.2194 135.45 78.609C142.479 81.9987 147.874 88.0416 150.447 95.4086C152.482 101.259 152.292 107.654 149.915 113.374C147.537 119.094 143.138 123.739 137.556 126.424L152.009 167.886ZM87.3525 172.966L130.959 157.735L114.668 111.096L127.357 112.175C128.078 112.236 128.804 112.143 129.486 111.901C131.652 111.141 133.428 109.553 134.425 107.486C135.422 105.419 135.558 103.04 134.804 100.873C133.676 97.6433 131.312 94.9943 128.23 93.5085C125.149 92.0226 121.604 91.8216 118.375 92.9496L56.8505 114.44C53.6211 115.568 50.9722 117.933 49.4863 121.014C48.0005 124.095 47.7994 127.64 48.9275 130.87C49.6864 133.036 51.274 134.813 53.3416 135.81C55.4092 136.807 57.788 136.943 59.9557 136.188C60.6476 135.95 61.2808 135.567 61.8135 135.065L71.076 126.369L87.3525 172.966Z" fill="#339989"/>
<path d="M43.9587 34.0944L52.7748 59.3335L50.4156 60.1576L42.7226 38.1338L41.3861 60.9891L38.9927 61.8252L23.7043 44.7386L31.4132 66.808L29.0579 67.6308L20.2378 42.3802L23.6319 41.1947L39.2547 58.664L40.5835 35.2734L43.9587 34.0944ZM48.9106 23.826L32.8417 29.4389L32.5336 34.8149L32.309 38.8041L29.6405 35.8213L26.0534 31.8101L9.96936 37.4283L24.102 77.8878L41.6777 71.7485L40.9546 69.6785L44.7597 68.3494L45.4828 70.4194L63.0622 64.2788L48.9296 23.8194L48.9106 23.826Z" fill="#339989"/>
<path d="M67.4247 34.1973L73.657 52.0393L71.3169 52.8567L70.2536 49.8126C70.0846 51.0181 69.5778 52.1511 68.7919 53.0806C68.006 54.0102 66.973 54.6983 65.8125 55.0655C61.6269 56.5275 58.6876 54.2241 57.2486 50.3977L53.3117 39.127L55.6518 38.3096L59.4079 49.0627C60.543 52.3123 62.7323 53.6908 65.6774 52.662C68.6758 51.6147 69.9785 49.025 68.765 45.5509L65.0846 35.0147L67.4247 34.1973ZM72.3766 23.9288L43.0433 34.1751L49.6889 53.2005C52.785 61.5629 60.5119 65.46 68.4721 62.6794C69.4228 62.3492 70.3393 61.9275 71.2087 61.4204L83.9215 56.9798L72.3766 23.9288Z" fill="#339989"/>
<path d="M80.1012 29.4449C83.3507 28.3098 86.5538 29.0951 88.9973 31.8491L87.0694 33.5045C85.4496 31.5685 83.1392 30.8087 80.8561 31.6061C77.0168 32.9472 76.4517 37.0127 77.7183 40.6389C78.985 44.2652 81.9399 47.0413 85.7983 45.6935C88.1194 44.8827 89.4241 42.8857 89.3659 40.4213L91.8143 40.4883C91.8234 43.9732 89.8568 46.6667 86.5692 47.8151C81.4438 49.6054 77.1028 46.5279 75.343 41.49C73.7095 36.8135 74.7617 31.3313 80.1078 29.4639L80.1012 29.4449ZM77.4496 21.8537C75.1185 22.6275 73.0008 23.9358 71.2654 25.6739C69.5301 27.412 68.2252 29.5319 67.4551 31.8641C66.1964 35.8783 66.294 40.1951 67.7328 44.1483C69.2361 48.4518 72.0018 51.9941 75.5238 54.1324C77.5619 55.3665 79.8511 56.1269 82.2224 56.3575C84.5938 56.5882 86.9866 56.2831 89.2242 55.4648C95.788 53.172 99.8705 47.4425 99.8797 40.5144L99.878 33.176L100.476 32.6639L95.0393 26.4982C90.4542 21.3286 83.8811 19.5858 77.4429 21.8347L77.4496 21.8537Z" fill="#339989"/>
<path d="M91.6705 17.4285L95.315 27.862C95.4733 26.6581 95.9703 25.524 96.7482 24.5917C97.526 23.6594 98.5528 22.9672 99.7088 22.5958C103.872 21.1418 106.906 23.4119 108.326 27.245L112.275 38.5499L109.881 39.3859L106.125 28.6328C105.015 25.4555 103.051 23.8533 99.9272 24.9445C96.7462 26.0557 95.739 29.0758 96.9299 32.4852L100.487 42.6676L98.0933 43.5036L89.2772 18.2645L91.6705 17.4285ZM96.6224 7.16004L79.0087 13.3126L93.1414 53.772L122.543 43.5018L115.887 24.446C113.062 16.8216 106.372 12.9122 99.1455 14.4076L96.6148 7.1627L96.6224 7.16004Z" fill="#339989"/>
<path d="M63.984 70.6213L64.9995 90.2855L62.7736 91.0631L52.7906 78.1772L53.0135 94.4723L50.7799 95.2525L39.3499 79.2261L41.8879 78.3395L50.7904 91.2613L50.5863 75.3011L52.7362 74.5502L62.4882 87.1538L61.4346 71.5118L63.9726 70.6252L63.984 70.6213ZM71.4663 59.469L26.5473 75.1594L32.7871 83.905L44.2185 99.9353L47.7306 104.856L73.3616 95.9033L73.0509 89.8682L72.0316 70.2053L71.4777 59.465L71.4663 59.469Z" fill="#339989"/>
<path d="M74.6172 66.5826C79.7084 64.8042 84.7201 67.6261 86.4984 72.7173C88.2768 77.8085 86.136 83.2056 81.0448 84.9839C75.9536 86.7623 71.0051 83.9013 69.2081 78.7568C67.4112 73.6124 69.545 68.3543 74.6172 66.5826ZM80.3324 82.9444C84.225 81.5847 85.4354 77.533 84.0571 73.5871C82.6788 69.6413 79.2395 67.3119 75.3469 68.6716C71.4543 70.0313 70.2805 73.9678 71.6601 77.9174C73.0398 81.8671 76.4741 84.2922 80.3324 82.9444ZM71.9589 58.9724C69.7327 59.7288 67.6903 60.9447 65.9642 62.5412C64.2382 64.1378 62.8671 66.0794 61.9398 68.24C60.2301 72.4503 60.1135 77.1394 61.6121 81.4294C63.1106 85.7194 66.1214 89.3161 70.0807 91.5462C72.1522 92.6708 74.4379 93.345 76.7881 93.5247C79.1383 93.7044 81.5 93.3855 83.7183 92.5888C92.8505 89.3989 97.4227 79.4979 94.1238 70.0537C90.8249 60.6095 81.1101 55.7759 71.9741 58.9671L71.9589 58.9724Z" fill="#339989"/>
<path d="M110.193 54.4803L111.208 74.1446L108.979 74.9234L99.0033 62.0349L99.2224 78.3313L96.9926 79.1102L85.5626 63.0838L88.0967 62.1986L96.9993 75.1203L96.7952 59.1602L98.9564 58.4052L108.708 71.0089L107.655 55.3668L110.193 54.4803ZM117.69 43.3227L72.7599 59.0171L78.996 67.7641L90.4273 83.7943L93.9394 88.7154L119.574 79.761L119.26 73.7273L118.244 54.063L117.69 43.3227Z" fill="#339989"/>
<path d="M132.503 120.453C128.912 121.703 124.973 121.477 121.548 119.826C118.123 118.174 115.494 115.232 114.236 111.644C113.222 108.731 113.404 105.534 114.744 102.756C116.083 99.9775 118.469 97.8437 121.38 96.8225C123.751 95.9967 126.352 96.1454 128.613 97.2358C130.874 98.3262 132.61 100.269 133.44 102.639L131.918 103.17C131.229 101.205 129.789 99.5927 127.913 98.688C126.037 97.7833 123.879 97.6598 121.912 98.3446C119.404 99.2238 117.348 101.062 116.194 103.456C115.04 105.849 114.883 108.603 115.758 111.112C116.875 114.296 119.209 116.908 122.248 118.374C125.288 119.839 128.784 120.04 131.972 118.931C136.008 117.521 139.319 114.565 141.177 110.714C143.034 106.862 143.285 102.431 141.875 98.3942C140.091 93.3059 136.362 89.133 131.505 86.7909C126.648 84.4487 121.061 84.1285 115.968 85.9006L54.3943 107.409C49.305 109.192 45.1309 112.921 42.788 117.779C40.4451 122.636 40.1246 128.224 41.8969 133.317C43.3069 137.354 46.2627 140.665 50.1141 142.522C53.9656 144.38 58.397 144.631 62.4337 143.221C65.618 142.104 68.2294 139.77 69.6952 136.731C71.161 133.691 71.3615 130.194 70.2528 127.007C69.3734 124.499 67.5352 122.443 65.1415 121.288C62.7478 120.134 59.9939 119.976 57.484 120.849C55.5184 121.538 53.9064 122.979 53.0017 124.855C52.097 126.731 51.9735 128.889 52.6583 130.856L51.1363 131.388C50.3116 129.017 50.4608 126.416 51.5511 124.155C52.6413 121.894 54.5838 120.158 56.9523 119.327C59.8659 118.313 63.0629 118.496 65.8418 119.836C68.6207 121.176 70.7544 123.564 71.7748 126.475C73.0241 130.068 72.797 134.01 71.1433 137.436C69.4895 140.861 66.5443 143.491 62.954 144.747C58.5136 146.298 53.639 146.022 49.4024 143.979C45.1659 141.935 41.9145 138.293 40.3634 133.853C38.453 128.355 38.8017 122.323 41.3329 117.081C43.8642 111.84 48.3713 107.817 53.8653 105.894L115.432 84.3888C120.928 82.4758 126.958 82.8211 132.2 85.3489C137.442 87.8768 141.467 92.3809 143.392 97.8729C144.941 102.311 144.663 107.183 142.621 111.417C140.58 115.651 136.94 118.901 132.503 120.453Z" fill="#FB9E66"/>
<path d="M114.497 104.875L67.5081 121.289L68.0397 122.811L115.029 106.397L114.497 104.875Z" fill="#FB9E66"/>
<path d="M77.1458 118.776L75.6238 119.308L96.329 178.583L97.851 178.051L77.1458 118.776Z" fill="#FB9E66"/>
<path d="M106.749 108.435L105.227 108.967L125.933 168.242L127.455 167.711L106.749 108.435Z" fill="#FB9E66"/>
<path d="M91.9476 113.606L90.4256 114.137L111.131 173.413L112.653 172.881L91.9476 113.606Z" fill="#FB9E66"/>
<path d="M142.522 163.302L81.7931 184.514L67.0982 142.445L68.6202 141.914L82.7835 182.461L140.468 162.311L126.305 121.764L127.827 121.233L142.522 163.302Z" fill="#FB9E66"/>
<path d="M43.9624 34.0931L52.7785 59.3322L50.4194 60.1563L42.725 38.1287L41.3898 60.9878L38.9965 61.8238L23.7067 44.7334L31.4157 66.8029L29.0565 67.627L20.2377 42.3802L23.6319 41.1947L39.2546 58.664L40.5873 35.2721L43.9624 34.0931Z" fill="#FB9E66"/>
<path d="M57.2539 50.4129L53.3104 39.1232L55.6505 38.3058L59.4066 49.0589C60.543 52.3123 62.7323 53.6908 65.6774 52.662C68.6796 51.6134 69.9785 49.025 68.765 45.5509L65.0833 35.0109L67.4234 34.1935L73.657 52.0393L71.3169 52.8567L70.2536 49.8126C70.0874 51.0184 69.5821 52.1521 68.7965 53.0819C68.0109 54.0116 66.9774 54.699 65.8163 55.0641C61.6345 56.5248 58.6739 54.246 57.2539 50.4129Z" fill="#FB9E66"/>
<path d="M75.343 41.49C73.7082 36.8097 74.7617 31.3313 80.1079 29.4639C83.3612 28.3275 86.5605 29.1141 89.0078 31.8668L87.0694 33.5045C85.4521 31.5633 83.1392 30.8086 80.8562 31.6061C77.0168 32.9472 76.4517 37.0127 77.7183 40.6389C78.985 44.2651 81.9399 47.0412 85.7983 45.6935C86.8945 45.3361 87.8412 44.6254 88.4902 43.6724C89.1393 42.7195 89.454 41.5783 89.3852 40.4274L91.8335 40.4943C91.8234 43.9731 89.8606 46.6653 86.573 47.8137C81.4438 49.6054 77.1028 46.5279 75.343 41.49Z" fill="#FB9E66"/>
<path d="M89.2771 18.2645L91.6705 17.4284L95.3136 27.8582C95.4722 26.6547 95.9696 25.521 96.7477 24.5893C97.5258 23.6576 98.5527 22.9663 99.7087 22.5958C103.871 21.1417 106.908 23.4068 108.328 27.2399L112.279 38.5486L109.885 39.3846L106.129 28.6314C105.018 25.4504 103.055 23.8519 99.9272 24.9445C96.7994 26.037 95.7376 29.072 96.9299 32.4851L100.487 42.6675L98.0932 43.5036L89.2771 18.2645Z" fill="#FB9E66"/>
<path d="M39.3486 79.2223L41.8866 78.3357L50.7904 91.2613L50.585 75.2973L52.7348 74.5464L62.492 87.1525L61.4371 71.5067L63.9751 70.6201L64.9919 90.2882L62.7736 91.0631L52.7931 78.1721L53.0135 94.4723L50.7799 95.2525L39.3486 79.2223Z" fill="#FB9E66"/>
<path d="M69.2067 78.7531C67.4283 73.6619 69.5449 68.3543 74.6171 66.5826C79.6892 64.8109 84.7224 67.621 86.5008 72.7122C88.2792 77.8034 86.1397 83.2043 81.0447 84.984C75.9497 86.7637 71.005 83.9013 69.2067 78.7531ZM84.0465 73.5694C82.6749 69.6426 79.2289 67.2942 75.3325 68.6552C71.4361 70.0163 70.2713 73.9539 71.6496 77.8998C73.0279 81.8456 76.442 84.2863 80.3194 82.9319C84.1968 81.5775 85.4338 77.5165 84.0541 73.5668L84.0465 73.5694Z" fill="#FB9E66"/>
<path d="M85.5613 63.0799L88.0955 62.1947L96.9993 75.1203L96.7977 59.155L98.959 58.4001L108.708 71.0088L107.65 55.3643L110.192 54.4765L111.208 74.1445L108.975 74.9247L99.002 62.0311L99.2262 78.33L96.9926 79.1102L85.5613 63.0799Z" fill="#FB9E66"/>
</svg>
