<svg width="150" height="150" viewBox="0 0 150 150" fill="none" xmlns="http://www.w3.org/2000/svg">
<path d="M150 72.2445V77.7693L98.5954 82.8548C94.5531 83.2543 90.7743 85.0425 87.9024 87.915C85.0305 90.7876 83.2431 94.5668 82.8445 98.6091L77.7555 150H72.2307L67.1452 98.6091C66.7484 94.5655 64.9611 90.7849 62.0881 87.9119C59.2151 85.0389 55.4345 83.2516 51.3909 82.8548L0 77.7693V72.2445L51.3909 67.1589C55.4335 66.7596 59.2128 64.9715 62.0853 62.099C64.9577 59.2265 66.7458 55.4473 67.1452 51.4047L72.2307 0H77.7555L82.8445 51.4047C83.2456 55.446 85.0338 59.2238 87.9053 62.0958C90.7767 64.9679 94.5541 66.7569 98.5954 67.1589L150 72.2445Z" fill="#E57724"/>
</svg>
