<svg width="151" height="150" viewBox="0 0 151 150" fill="none" xmlns="http://www.w3.org/2000/svg">
<path d="M80.8598 2.74123C81.6502 1.73012 82.6987 0.950878 83.8948 0.485569C85.0909 0.0202592 86.3903 -0.113897 87.6563 0.0972285C88.9222 0.308354 90.1078 0.856948 91.0882 1.68524C92.0685 2.51352 92.8074 3.59085 93.2269 4.80376C93.5815 5.82789 94.1645 6.75788 94.9318 7.52325C95.6992 8.28862 96.6306 8.8693 97.6557 9.22126C98.6807 9.57323 99.7724 9.68726 100.848 9.55471C101.924 9.42216 102.955 9.04652 103.864 8.45623C104.94 7.75772 106.184 7.36184 107.465 7.3102C108.747 7.25857 110.019 7.55308 111.147 8.16278C112.276 8.77249 113.219 9.67488 113.878 10.7751C114.537 11.8754 114.888 13.1329 114.893 14.4155C114.895 15.4995 115.144 16.5688 115.62 17.5424C116.097 18.516 116.789 19.3683 117.644 20.0346C118.499 20.7008 119.494 21.1636 120.555 21.3877C121.615 21.6118 122.713 21.5914 123.764 21.328C125.008 21.0178 126.312 21.048 127.539 21.4153C128.767 21.7825 129.873 22.4735 130.742 23.4155C131.611 24.3576 132.21 25.5161 132.477 26.7695C132.744 28.0229 132.668 29.325 132.259 30.5393C131.91 31.5653 131.798 32.6573 131.934 33.7327C132.069 34.808 132.448 35.8383 133.041 36.7457C133.633 37.653 134.425 38.4135 135.355 38.9695C136.286 39.5255 137.33 39.8625 138.41 39.9548C139.689 40.064 140.914 40.5159 141.958 41.263C143.001 42.0101 143.824 43.0247 144.339 44.2C144.854 45.3753 145.043 46.6677 144.886 47.9413C144.728 49.2149 144.23 50.4225 143.444 51.4369C142.778 52.2933 142.315 53.2904 142.092 54.3524C141.868 55.4144 141.889 56.5134 142.154 57.5659C142.419 58.6184 142.92 59.5967 143.62 60.4264C144.32 61.2561 145.199 61.9154 146.192 62.3542C147.365 62.8736 148.376 63.6994 149.12 64.7448C149.863 65.7902 150.312 67.0167 150.417 68.2952C150.523 69.5737 150.282 70.8571 149.721 72.0105C149.159 73.1638 148.297 74.1446 147.225 74.8496C146.318 75.4441 145.558 76.2376 145.003 77.1699C144.448 78.1022 144.114 79.1486 144.024 80.2297C143.934 81.3108 144.093 82.3981 144.486 83.4089C144.88 84.4197 145.499 85.3275 146.296 86.0633C147.238 86.9349 147.928 88.0444 148.293 89.2751C148.658 90.5057 148.684 91.8119 148.37 93.0563C148.055 94.3007 147.41 95.4372 146.504 96.3463C145.598 97.2554 144.464 97.9034 143.22 98.2222C142.17 98.4919 141.195 98.9974 140.369 99.7003C139.544 100.403 138.889 101.285 138.455 102.279C138.021 103.272 137.819 104.352 137.865 105.435C137.911 106.518 138.203 107.577 138.719 108.531C139.327 109.661 139.62 110.935 139.565 112.217C139.511 113.5 139.111 114.744 138.409 115.819C137.707 116.893 136.727 117.759 135.575 118.323C134.422 118.888 133.138 119.131 131.858 119.028C130.778 118.942 129.693 119.102 128.685 119.498C127.676 119.894 126.771 120.513 126.038 121.311C125.304 122.108 124.762 123.062 124.452 124.1C124.142 125.138 124.073 126.233 124.249 127.302C124.456 128.568 124.319 129.867 123.85 131.062C123.382 132.256 122.6 133.303 121.588 134.091C120.575 134.879 119.369 135.38 118.095 135.54C116.822 135.701 115.529 135.515 114.353 135.003C113.359 134.571 112.28 134.371 111.198 134.417C110.115 134.464 109.058 134.756 108.105 135.271C107.152 135.786 106.328 136.512 105.697 137.393C105.066 138.273 104.643 139.286 104.461 140.354C104.247 141.619 103.696 142.804 102.865 143.783C102.035 144.761 100.956 145.498 99.7419 145.915C98.528 146.332 97.2241 146.414 95.9676 146.152C94.7111 145.89 93.5485 145.294 92.6021 144.427C91.8033 143.695 90.8482 143.154 89.8093 142.846C88.7705 142.538 87.6752 142.471 86.6064 142.649C85.5377 142.828 84.5236 143.247 83.641 143.876C82.7584 144.504 82.0305 145.325 81.5126 146.277C80.8984 147.404 79.992 148.344 78.8887 148.999C77.7855 149.654 76.526 150 75.2429 150C73.9597 150 72.7003 149.654 71.597 148.999C70.4937 148.344 69.5874 147.404 68.9732 146.277C68.4548 145.325 67.7265 144.504 66.8436 143.876C65.9606 143.247 64.9462 142.828 63.8772 142.649C62.8081 142.471 61.7125 142.538 60.6734 142.846C59.6343 143.154 58.6789 143.695 57.8796 144.427C56.9333 145.294 55.7707 145.89 54.5141 146.152C53.2576 146.414 51.9537 146.332 50.7398 145.915C49.5259 145.498 48.4469 144.761 47.6165 143.783C46.786 142.804 46.2349 141.619 46.0211 140.354C45.8389 139.286 45.4161 138.273 44.7848 137.393C44.1536 136.512 43.3303 135.786 42.3772 135.271C41.4242 134.756 40.3665 134.464 39.284 134.417C38.2015 134.371 37.1226 134.571 36.129 135.003C34.9523 135.515 33.6595 135.701 32.3863 135.54C31.1132 135.38 29.9069 134.879 28.8942 134.091C27.8815 133.303 27.0999 132.256 26.6316 131.062C26.1633 129.867 26.0255 128.568 26.2328 127.302C26.4089 126.233 26.3394 125.138 26.0294 124.1C25.7195 123.062 25.1774 122.108 24.4441 121.311C23.7108 120.513 22.8056 119.894 21.7971 119.498C20.7887 119.102 19.7034 118.942 18.6235 119.028C17.3433 119.133 16.0584 118.891 14.9044 118.327C13.7503 117.763 12.7699 116.897 12.0666 115.823C11.3632 114.748 10.9631 113.503 10.9082 112.22C10.8534 110.936 11.146 109.662 11.7551 108.531C12.2724 107.575 12.5645 106.513 12.609 105.427C12.6535 104.341 12.4493 103.259 12.0119 102.264C11.5746 101.268 10.9157 100.386 10.0855 99.6844C9.25526 98.9826 8.27571 98.4797 7.22156 98.2142C5.97818 97.8954 4.84371 97.2474 3.93753 96.3383C3.03135 95.4292 2.38696 94.2927 2.07217 93.0483C1.75738 91.8039 1.78384 90.4977 2.14875 89.2671C2.51367 88.0364 3.20354 86.9269 4.14579 86.0553C4.94141 85.3195 5.55902 84.4122 5.95177 83.4022C6.34452 82.3921 6.5021 81.3059 6.41255 80.2259C6.323 79.146 5.98868 78.1005 5.43494 77.169C4.8812 76.2375 4.12259 75.4443 3.21666 74.8496C2.14484 74.1446 1.28274 73.1638 0.720987 72.0105C0.159232 70.8571 -0.0814318 69.5737 0.0242925 68.2952C0.130017 67.0167 0.578225 65.7902 1.3218 64.7448C2.06538 63.6994 3.07686 62.8736 4.24992 62.3542C5.24127 61.9165 6.11996 61.2588 6.81944 60.431C7.51891 59.6033 8.0208 58.6272 8.28709 57.5767C8.55337 56.5262 8.57707 55.4289 8.35638 54.3679C8.13568 53.3069 7.67639 52.3101 7.01331 51.4529C6.22683 50.4374 5.72899 49.2285 5.57228 47.9537C5.41558 46.6789 5.60582 45.3854 6.12294 44.2096C6.64006 43.0339 7.4649 42.0195 8.51045 41.2735C9.55599 40.5275 10.7835 40.0774 12.0635 39.9708C13.1434 39.8785 14.1881 39.5415 15.1184 38.9855C16.0487 38.4295 16.8403 37.669 17.4331 36.7617C18.0259 35.8544 18.4043 34.824 18.5398 33.7487C18.6753 32.6734 18.5642 31.5813 18.215 30.5553C17.8053 29.3411 17.73 28.0389 17.9968 26.7855C18.2636 25.5321 18.8629 24.3736 19.7316 23.4316C20.6004 22.4895 21.7066 21.7986 22.9344 21.4313C24.1621 21.064 25.466 21.0338 26.7094 21.344C27.7622 21.6077 28.8613 21.6279 29.923 21.4029C30.9847 21.1779 31.9812 20.7137 32.8365 20.0457C33.6918 19.3776 34.3836 18.5233 34.859 17.5477C35.3345 16.572 35.5812 15.5008 35.5803 14.4155C35.5842 13.1322 35.9338 11.8737 36.5925 10.7723C37.2511 9.67091 38.1944 8.76736 39.3231 8.1567C40.4518 7.54604 41.7242 7.25083 43.0065 7.30213C44.2887 7.35343 45.5335 7.74934 46.6098 8.44822C47.5182 9.03866 48.549 9.41465 49.6243 9.54772C50.6995 9.68079 51.7909 9.56745 52.8158 9.21629C53.8407 8.86513 54.7723 8.28535 55.54 7.52085C56.3077 6.75636 56.8914 5.82721 57.2468 4.80376C57.6664 3.59085 58.4052 2.51352 59.3856 1.68524C60.366 0.856948 61.5515 0.308354 62.8175 0.0972285C64.0834 -0.113897 65.3828 0.0202592 66.5789 0.485569C67.775 0.950878 68.8235 1.73012 69.614 2.74123C70.2819 3.59454 71.1354 4.28463 72.1096 4.75923C73.0838 5.23382 74.1532 5.48045 75.2369 5.48045C76.3205 5.48045 77.39 5.23382 78.3642 4.75923C79.3384 4.28463 80.1918 3.59454 80.8598 2.74123Z" fill="#339989"/>
<path d="M34.9315 43.8436L32.8249 46.4548L31.4873 45.3774L36.8939 38.6532L38.2356 39.7305L36.137 42.3417L43.1376 47.9726L41.9361 49.4705L34.9315 43.8436Z" fill="#00C49A"/>
<path d="M39.0285 36.6268L40.4743 35.4253L43.0414 38.5131C43.0367 38.0932 43.1264 37.6776 43.3039 37.2971C43.4814 36.9165 43.742 36.5807 44.0667 36.3144C45.5925 35.0448 47.2346 35.7537 48.2478 36.9712L51.1554 40.4635L49.7136 41.6649L46.9542 38.3489C46.3575 37.632 45.6486 37.1714 44.7916 37.8803C43.9345 38.5892 44.0667 39.7346 44.8717 40.7038L47.3267 43.6514L45.8809 44.8528L39.0285 36.6268Z" fill="#00C49A"/>
<path d="M46.9262 30.5833L48.5802 29.5701L49.4733 31.0239L47.8193 32.0371L46.9262 30.5833ZM48.6043 33.2386L50.1822 32.2734L54.139 38.7253L52.5611 39.6905L48.6043 33.2386Z" fill="#00C49A"/>
<path d="M52.6973 30.7676L54.3953 30.0347L54.7438 30.8357C54.8639 30.4293 55.0722 30.0546 55.354 29.7382C55.6358 29.4218 55.984 29.1716 56.3738 29.0054C58.2 28.2245 59.5457 29.4059 60.1704 30.8397L61.9646 35.0208L60.2665 35.7497L58.5645 31.7848C58.164 30.8717 57.4311 30.4071 56.562 30.7836C55.6088 31.1841 55.2284 31.965 55.761 33.1865L57.395 36.9992L55.6809 37.7281L52.6973 30.7676Z" fill="#00C49A"/>
<path d="M61.1837 24.1435L62.9939 23.743L64.2995 29.8865L66.4381 26.214L68.789 25.7174L66.6264 29.1736L70.6673 33.0544L68.5327 33.5109L65.6331 30.5393L64.7601 32.0451L65.2206 34.2158L63.4104 34.6163L61.1837 24.1435Z" fill="#00C49A"/>
<path d="M84.7445 27.9521L84.1878 33.7152L82.67 33.567V32.0491C82.2875 32.5478 81.779 32.9353 81.1967 33.1719C80.6145 33.4084 79.9798 33.4854 79.3579 33.3948C75.8496 33.0544 74.4479 30.339 74.7323 27.4114C75.0166 24.4839 76.8669 22.0729 80.3912 22.4253C81.3884 22.4941 82.3403 22.868 83.1176 23.4963C83.895 24.1247 84.4602 24.977 84.7365 25.9376L82.9743 26.4823C82.8488 25.8322 82.5078 25.2434 82.0064 24.811C81.505 24.3786 80.8724 24.1279 80.211 24.0994C77.9562 23.8791 76.8148 25.5572 76.6065 27.5316C76.4023 29.6502 77.2073 31.4724 79.4941 31.6967C81.1601 31.8569 82.4257 31.0519 82.654 29.3218L80.3071 29.0935L80.4593 27.5476L84.7445 27.9521Z" fill="#00C49A"/>
<path d="M86.0742 32.8862L88.5893 24.0273L90.3674 24.5319L87.9885 32.8942C87.8924 33.2386 88.0766 33.4468 88.4331 33.551C88.594 33.5901 88.7572 33.6196 88.9217 33.6391L88.5212 35.1449C88.0601 35.1096 87.603 35.0332 87.1555 34.9167C86.3025 34.6764 85.7177 34.1677 86.0742 32.8862Z" fill="#00C49A"/>
<path d="M90.4435 31.6567C90.7716 30.9667 91.296 30.3889 91.951 29.9958C92.606 29.6026 93.3625 29.4115 94.1257 29.4464C94.8889 29.4814 95.6248 29.7408 96.2411 30.1922C96.8575 30.6436 97.3269 31.2668 97.5906 31.9839C97.8542 32.7009 97.9004 33.4798 97.7232 34.223C97.5461 34.9661 97.1535 35.6404 96.5948 36.1615C96.036 36.6825 95.3359 37.0269 94.5822 37.1518C93.8285 37.2766 93.0547 37.1761 92.3578 36.863C91.879 36.6603 91.4469 36.3615 91.0882 35.9851C90.7295 35.6087 90.4518 35.1627 90.2724 34.6747C90.0929 34.1867 90.0155 33.6671 90.045 33.1479C90.0744 32.6288 90.2101 32.1213 90.4435 31.6567ZM95.762 34.0596C96.2746 32.9262 96.2146 31.7087 94.937 31.136C93.6594 30.5633 92.7063 31.3202 92.1976 32.4536C91.689 33.587 91.7371 34.8566 92.9986 35.4133C94.2602 35.9699 95.2534 35.185 95.762 34.0396V34.0596Z" fill="#00C49A"/>
<path d="M98.8018 39.3461L98.3612 39.9628L96.8073 38.8454L103.015 30.1228L104.573 31.2361L102.314 34.408C102.704 34.3124 103.111 34.3067 103.504 34.3914C103.896 34.476 104.265 34.6488 104.581 34.8966C106.315 36.1301 106.183 38.2888 104.961 40.0029C103.74 41.717 101.757 42.55 100.035 41.3325C99.6958 41.1129 99.4092 40.8209 99.1959 40.4775C98.9827 40.1341 98.848 39.7477 98.8018 39.3461ZM103.443 38.9456C104.172 37.9203 104.292 36.7709 103.255 36.034C102.218 35.2971 101.161 35.7617 100.424 36.7989C99.6868 37.8362 99.6228 38.9616 100.648 39.6985C101.673 40.4354 102.715 39.9548 103.443 38.9295V38.9456Z" fill="#00C49A"/>
<path d="M111.049 45.1051L107.745 48.281L106.691 47.1797L107.34 46.4027C106.886 46.4626 106.423 46.4112 105.993 46.2528C105.562 46.0945 105.177 45.8339 104.869 45.4936C103.796 44.3722 103.612 42.8904 104.757 41.7931C105.902 40.6957 107.252 41.2324 108.426 42.4619L109.843 43.9437C110.644 43.1427 110.744 42.57 109.911 41.7009C109.657 41.4385 109.338 41.2491 108.985 41.1526C108.633 41.056 108.261 41.0559 107.909 41.1523L107.669 39.4222C108.286 39.31 108.922 39.357 109.516 39.5588C110.11 39.7606 110.643 40.1106 111.065 40.5756C112.479 42.0494 112.386 43.8275 111.049 45.1051ZM108.83 44.9129L108.874 44.8728L107.52 43.4591C106.94 42.8503 106.355 42.8744 106.011 43.2068C105.666 43.5392 105.67 44.0879 106.239 44.6846C106.564 45.0404 107.01 45.2613 107.49 45.3036C107.97 45.3458 108.448 45.2064 108.83 44.9129Z" fill="#00C49A"/>
<path d="M109.847 48.6895L117.308 43.3109L118.39 44.8128L111.349 49.895C111.061 50.1032 111.077 50.3836 111.293 50.696C111.357 50.7801 111.489 50.9363 111.626 51.0965L110.368 52.0056C110.028 51.6909 109.717 51.3465 109.439 50.9763C108.914 50.2394 108.762 49.4705 109.847 48.6895Z" fill="#00C49A"/>
<path d="M115.546 106.128L117.649 103.513L118.986 104.59L113.58 111.334L112.238 110.257L114.337 107.646L107.344 102.003L108.546 100.505L115.546 106.128Z" fill="#00C49A"/>
<path d="M111.445 113.337L110.003 114.538L107.432 111.454C107.437 111.873 107.347 112.288 107.171 112.668C106.996 113.049 106.737 113.385 106.415 113.653C104.889 114.923 103.243 114.21 102.23 112.992L99.3344 109.516L100.78 108.315L103.536 111.627C104.132 112.344 104.841 112.808 105.698 112.095C106.555 111.382 106.423 110.241 105.618 109.292L103.167 106.348L104.609 105.147L111.445 113.337Z" fill="#00C49A"/>
<path d="M101.869 116.745L100.292 117.714L96.3387 111.262L97.9126 110.293L101.869 116.745ZM103.548 119.396L101.894 120.409L101.004 118.944L102.654 117.93L103.548 119.396Z" fill="#00C49A"/>
<path d="M97.7765 119.212L96.0784 119.941L95.734 119.14C95.6133 119.546 95.4042 119.921 95.1217 120.238C94.8392 120.554 94.4904 120.804 94.1 120.97C92.2738 121.771 90.9281 120.57 90.3034 119.136L88.5212 114.939L90.2233 114.21L91.9213 118.175C92.3218 119.088 93.0547 119.552 93.9238 119.18C94.877 118.779 95.2574 117.978 94.7248 116.777L93.0908 112.964L94.7889 112.235L97.7765 119.212Z" fill="#00C49A"/>
<path d="M89.2901 125.84L87.4839 126.241L86.1743 120.093L84.0357 123.749L81.6848 124.25L83.8474 120.79L79.8065 116.909L81.9411 116.453L84.8447 119.424L85.7177 117.922L85.2532 115.74L87.0634 115.339L89.2901 125.84Z" fill="#00C49A"/>
<path d="M65.7292 122.027L66.2899 116.264L67.8038 116.412V117.93C68.1868 117.432 68.6954 117.045 69.2775 116.809C69.8595 116.572 70.494 116.495 71.1158 116.585C74.6241 116.925 76.0259 119.644 75.7415 122.568C75.4572 125.492 73.5869 127.911 70.0625 127.566C69.065 127.499 68.1126 127.125 67.335 126.497C66.5574 125.868 65.9925 125.015 65.7172 124.054L67.4834 123.509C67.6034 124.163 67.9416 124.757 68.4429 125.193C68.9442 125.63 69.5787 125.883 70.2428 125.912C72.4975 126.132 73.6429 124.454 73.8472 122.48C74.0514 120.361 73.2464 118.539 70.9637 118.319C69.2936 118.155 68.0281 118.96 67.7998 120.69L70.1466 120.918L69.9945 122.464L65.7292 122.027Z" fill="#00C49A"/>
<path d="M64.4036 117.093L61.8885 125.944L60.1063 125.44L62.4892 117.077C62.5854 116.737 62.4011 116.525 62.0447 116.424C61.88 116.382 61.7128 116.35 61.5441 116.328L61.9686 114.835C62.4298 114.871 62.8868 114.949 63.3343 115.067C64.1713 115.303 64.768 115.812 64.4036 117.093Z" fill="#00C49A"/>
<path d="M60.0303 118.323C59.7022 119.013 59.1778 119.591 58.5228 119.984C57.8677 120.377 57.1112 120.568 56.348 120.533C55.5849 120.498 54.849 120.239 54.2326 119.787C53.6163 119.336 53.1468 118.713 52.8832 117.996C52.6195 117.279 52.5734 116.5 52.7505 115.757C52.9277 115.013 53.3202 114.339 53.879 113.818C54.4377 113.297 55.1378 112.953 55.8916 112.828C56.6453 112.703 57.419 112.803 58.1159 113.116C58.5951 113.319 59.0277 113.617 59.3867 113.994C59.7457 114.37 60.0236 114.816 60.2031 115.304C60.3826 115.792 60.4599 116.312 60.4302 116.831C60.4004 117.351 60.2643 117.858 60.0303 118.323ZM54.7117 115.92C54.1991 117.053 54.2592 118.271 55.5408 118.847C56.8223 119.424 57.7675 118.659 58.2761 117.526C58.7847 116.392 58.7367 115.123 57.4751 114.566C56.2136 114.01 55.2204 114.794 54.7117 115.928V115.92Z" fill="#00C49A"/>
<path d="M51.676 110.633L52.1166 110.017L53.6705 111.126L47.4629 119.845L45.9089 118.739L48.1677 115.567C47.7774 115.662 47.371 115.667 46.9785 115.582C46.5861 115.497 46.2178 115.325 45.9009 115.079C44.1668 113.841 44.299 111.687 45.5004 109.969C46.7019 108.25 48.7044 107.425 50.4265 108.643C50.77 108.861 51.0604 109.152 51.2766 109.497C51.4928 109.841 51.6293 110.229 51.676 110.633ZM47.0343 111.034C46.3054 112.059 46.1853 113.209 47.2226 113.949C48.2598 114.69 49.3171 114.222 50.054 113.185C50.7909 112.147 50.855 111.022 49.8338 110.281C48.8125 109.54 47.7632 110.025 47.0303 111.05L47.0343 111.034Z" fill="#00C49A"/>
<path d="M39.425 104.874L42.7451 101.698L43.7943 102.8L43.1456 103.581C43.6 103.52 44.0623 103.571 44.4928 103.728C44.9233 103.886 45.3089 104.146 45.6166 104.486C46.6939 105.607 46.8741 107.093 45.7287 108.186C44.5833 109.28 43.2337 108.747 42.0602 107.522L40.6425 106.036C39.8415 106.837 39.7454 107.409 40.5784 108.279C40.8317 108.542 41.1515 108.732 41.504 108.829C41.8566 108.925 42.2286 108.925 42.5809 108.827L42.8212 110.561C42.2031 110.672 41.567 110.625 40.9724 110.423C40.3777 110.221 39.844 109.872 39.421 109.408C37.9952 107.918 38.0874 106.152 39.425 104.874ZM41.6437 105.067L41.5997 105.111L42.9533 106.52C43.534 107.129 44.1187 107.105 44.4632 106.777C44.8076 106.448 44.8036 105.892 44.2349 105.295C43.911 104.945 43.4685 104.727 42.9933 104.685C42.5181 104.643 42.0442 104.779 41.6637 105.067H41.6437Z" fill="#00C49A"/>
<path d="M40.6305 101.29L33.1654 106.669L32.084 105.167L39.1367 100.084C39.425 99.8762 39.409 99.5999 39.1928 99.2835C39.092 99.1419 38.9809 99.0081 38.8603 98.883L40.1219 97.9739C40.4587 98.293 40.7694 98.6385 41.051 99.0071C41.5597 99.74 41.7118 100.521 40.6305 101.29Z" fill="#00C49A"/>
<path d="M97.1157 74.1847V75.7867L82.1133 77.2925C80.9335 77.4091 79.8306 77.9309 78.9923 78.7692C78.154 79.6075 77.6322 80.7104 77.5157 81.8902L76.0339 96.8805H74.4319L72.9501 81.8902C72.8342 80.7095 72.312 79.6057 71.4728 78.7672C70.6335 77.9287 69.5292 77.4075 68.3485 77.2925L53.3581 75.8107V74.2088L68.3485 72.727C69.5282 72.6104 70.6312 72.0886 71.4695 71.2503C72.3077 70.412 72.8296 69.3091 72.9461 68.1293L74.4279 53.135H76.0299L77.5117 68.1293C77.6343 69.3051 78.1593 70.4025 78.9977 71.2359C79.8362 72.0693 80.9368 72.5875 82.1133 72.7029L97.1157 74.1847Z" fill="#00C49A"/>
</svg>
